<?xml version="1.0" encoding="utf-8"?>
<!-- Generator: Adobe Illustrator 16.0.0, SVG Export Plug-In . SVG Version: 6.00 Build 0)  -->
<!DOCTYPE svg PUBLIC "-//W3C//DTD SVG 1.1//EN" "http://www.w3.org/Graphics/SVG/1.1/DTD/svg11.dtd">
<svg version="1.1" id="Layer_1" xmlns="http://www.w3.org/2000/svg" xmlns:xlink="http://www.w3.org/1999/xlink" x="0px" y="0px"
	 width="960px" height="230px" viewBox="0 0 960 230" enable-background="new 0 0 960 230" xml:space="preserve">
<path fill="#B3B4B6" d="M914.144,144.239c-0.443-11.988-7.547-20.867-19.535-25.309c-16.429-6.215-31.969-4.883-47.952,3.997
	c-9.769-7.104-20.869-8.436-31.969-7.548c-27.528,3.107-36.408,15.54-36.408,37.296c0,8.88,0,17.316,0,26.196
	c0,1.776,0,3.553,0,4.885c-0.444,6.215-3.552,8.879-9.769,9.323c-7.992,0.443-11.544-3.108-11.988-11.544c0-24.42,0-49.285,0-73.705
	c0-2.22,0-4.44,0-6.66c-0.443-6.216-5.771-10.656-11.988-11.1c-4.439-0.444-6.216,0-15.095,0c0,3.996,0,7.104,0,10.212
	c0,25.753,0,51.505,0,76.813c0,2.22,1.332,4.439,1.332,6.66c-0.444,5.328-3.553,8.879-8.437,8.879c-5.772,0-8.88-3.107-9.769-9.323
	c0-2.22,0-4.44,0-6.66c0-15.984,0-31.524,0-47.509c0-8.436-3.552-12.432-11.544-12.876c-3.996,0-6.66,0-11.101,0
	c0,31.08,0,61.272,0,91.021c4.44,2.22,106.117,2.22,113.665,0c0-10.656-0.444-21.312-0.444-31.968c0-9.324-0.443-18.648,0-27.973
	c0.444-7.548,5.328-12.433,12.877-13.32c9.324-0.888,18.648,3.552,18.648,16.429c0,16.428,0,32.856,0,49.284
	c0,2.664,0,5.328,0.444,8.436c8.436,0.444,19.092,0.889,23.531-0.443c0-3.108,0-5.328,0-7.549c0-16.427,0-32.855,0-49.284
	c0-11.544,5.772-16.872,16.429-16.872c10.212,0,15.54,5.772,15.54,16.872c0,2.664,0,4.885,0,7.549c0,11.988,0,24.42,0,36.407
	c0,9.324,3.996,12.877,13.32,13.32c3.108,0,6.66,0,10.212,0C914.588,186.864,915.032,165.552,914.144,144.239z"/>
<path fill="#5A5955" d="M334.275,117.155c0,8.437,1.332,16.872,1.332,25.309c0,8.436,0.444,16.872,0.444,25.309
	c-0.444,0-0.888,0-1.332,0c-15.541-25.753-30.636-51.949-45.732-77.701c-3.997,0-7.992,0-11.988,0
	c-9.324,0.444-13.764,4.884-13.764,14.208c0,32.855,0,66.157,0,99.013c0,1.776-0.888,3.108-0.444,5.772
	c7.992,0.443,13.764,0.888,22.644-0.444c0-26.195,0-51.061,0-76.369c0,0,2.664-0.443,3.108-0.443
	c6.216,10.212,12.876,20.868,19.093,31.08c8.436,13.765,16.872,27.528,24.864,41.292c1.333,2.221,2.664,4.885,6.216,4.885
	c7.104,0,13.32,0,22.2,0c0-40.404,0-79.032,0-118.993c-8.88,0-13.32,0-26.64,0C334.275,99.396,334.275,108.72,334.275,117.155z"/>
<path fill="#5A5955" d="M605.562,117.6c-10.212-3.107-20.868-2.664-31.08-1.332c-14.209,2.22-22.645,10.656-24.864,24.864
	c6.66,0,12.876,0,19.092,0c1.776,0,3.996-0.889,5.328-1.776c7.104-5.772,14.652-4.885,22.2-2.664
	c1.776,0.443,3.996,3.108,4.885,4.884c1.332,3.108-1.332,5.328-3.996,6.66c-3.108,1.332-6.217,2.221-9.769,3.108
	c-6.66,1.332-13.32,1.776-19.98,3.996c-15.983,4.44-21.312,12.433-20.867,29.305c0.443,14.651,8.436,24.42,23.087,26.195
	c6.66,0.889,13.32,0.444,19.98,0c22.645-1.775,34.188-14.208,34.632-36.407c0.444-10.213,0-20.869,0-31.081
	C624.653,129.588,617.993,121.151,605.562,117.6z M601.565,173.544c-0.888,13.32-11.988,21.312-24.864,18.204
	c-3.996-0.888-6.66-3.552-7.104-7.548c-0.888-4.439,0-8.436,3.552-11.544c1.333-1.332,3.553-2.22,5.328-2.664
	c7.104-1.776,14.653-3.552,23.089-5.772C601.565,168.216,601.565,170.88,601.565,173.544z"/>
<path fill="#5A5955" d="M407.536,115.38c-19.092-0.888-36.853,9.324-40.849,34.188c-1.776,11.101-1.332,21.757,1.332,32.857
	c3.996,15.983,14.652,25.308,30.192,27.972c6.216,0.888,12.432,0.888,18.648,0c14.208-1.776,23.976-9.769,29.304-22.644
	c4.884-11.988,5.328-23.977,3.552-36.409C445.72,128.256,431.068,115.38,407.536,115.38z M421.3,183.757
	c-3.107,5.328-8.436,8.435-14.652,7.547c-7.104-0.888-12.432-4.439-14.208-11.1c-1.776-5.771-2.22-11.544-3.553-17.76l3.108-15.541
	c2.22-7.104,7.992-10.656,15.541-11.1c7.104-0.444,11.988,3.107,15.096,8.88C428.404,158.004,428.404,171.324,421.3,183.757z"/>
<path fill="#5A5955" d="M528.305,117.6c-9.324,0-11.988,1.776-14.652,10.656c-3.996,14.208-7.992,27.972-11.988,42.181
	c-0.888,2.664-1.775,4.884-2.663,7.548c-0.444,0-0.888-0.444-1.332-0.444c-5.772-19.98-11.544-42.625-17.316-60.385
	c-9.324,0-16.872,0-25.752,0c0.888,4.44,1.332,5.329,2.22,7.549c7.992,22.644,15.54,45.288,23.532,67.932
	c1.776,5.328,3.108,12.876,7.104,15.54s11.544,0.889,17.315,1.332c5.328,0.444,7.548-1.775,8.88-6.66
	c4.44-13.319,9.324-26.64,14.208-39.96c5.328-14.652,10.213-29.748,15.984-45.288c-1.775-0.444-2.664-0.444-3.552-0.444
	C536.297,117.6,532.301,117.6,528.305,117.6z"/>
<path fill="#B3B4B6" d="M651.738,90.515c-15.097,0.444-23.089,8.436-23.089,23.088c0,29.748,0,59.94,0,89.244
	c0,2.221,0.444,2.664,0.444,7.104c7.992,0,11.544,0,24.864,0c0-22.199,0-47.064,0-69.265c13.32-2.664,15.097-6.217,12.876-17.315
	c-4.439-0.444-9.324-0.888-13.764-0.888c-0.444-11.101-0.444-11.101,8.88-12.433c1.776-0.444,5.328-0.888,5.328-1.332
	c0-6.216,0-11.544,0-18.205C658.398,90.515,656.622,90.071,651.738,90.515z"/>
<path fill="#B3B4B6" d="M689.479,91.847c0,5.772,0,11.988,0,16.428c4.439,0,14.652,0,22.2,0
	C714.343,94.955,702.799,87.852,689.479,91.847z"/>
<g>
	<path fill="#5A5955" d="M269.006,79.416V17.255h13.32v62.161H269.006z"/>
	<path fill="#5A5955" d="M290.763,79.416V43.895c0-0.444,0-1.332,0-2.22c0.888-5.772,4.44-8.88,11.1-8.88h16.428
		c6.216,0,10.212,3.108,11.1,8.88c0,0.888,0,1.332,0,2.22v35.521h-11.988V47.891c0-0.444,0-0.444,0-0.888
		c-0.444-1.776-1.332-2.664-3.996-2.664h-7.104c-2.22,0-3.552,0.888-3.996,2.664v31.968h-11.544V79.416z"/>
	<path fill="#5A5955" d="M337.383,67.427V44.339c0-0.444,0-0.444,0-0.888v-0.888c0.444-5.328,3.552-8.437,7.992-9.324
		c0.888,0,1.776-0.444,2.22-0.444h16.873V15.479h11.988v51.504c0,3.996-0.888,7.104-3.108,9.324
		c-1.776,2.22-4.883,3.552-8.879,3.552h-16.873c-3.996,0-7.104-1.776-9.324-5.328C337.827,72.311,337.383,70.091,337.383,67.427z
		 M364.468,47.447c-0.444-1.776-1.332-2.664-3.108-2.664h-8.88c-1.776,0-3.108,0.888-3.552,2.664v0.444v16.872
		c0,1.333,0.888,2.22,2.22,2.665c0,0,0.444,0,0.888,0h9.769c0.444,0,0.444,0,0.888,0c1.332-0.444,2.22-0.888,2.22-1.776V47.447
		H364.468z"/>
	<path fill="#5A5955" d="M384.891,68.315V32.794h11.988v31.968c0.444,1.776,1.333,2.665,3.997,2.665h7.104
		c2.22,0,3.553-0.888,3.996-2.665c0,0,0-0.444,0-0.888V32.794h11.988v35.521c0,0.444,0,1.332,0,2.22
		c-0.888,5.772-4.439,8.88-11.101,8.88h-16.427c-6.217,0-10.213-3.108-11.101-8.88C384.891,69.647,384.891,68.759,384.891,68.315z"
		/>
	<path fill="#5A5955" d="M430.624,79.416V67.427h20.869c1.332-0.444,2.22-0.888,2.22-1.776v-0.444v-0.888
		c0-1.332-0.444-1.776-1.776-2.22h-10.212c-1.776,0-3.552-0.444-4.884-1.332c-3.996-2.22-5.772-5.328-5.772-8.436v-8.88
		c0-0.888,0-1.776,0.443-2.664c1.333-5.328,4.885-7.992,11.101-7.992h23.533l0.443,11.988h-21.312c-0.443,0-0.443,0-0.888,0.444
		c-0.888,0.888-1.332,1.332-1.332,1.776v0.888c0,1.332,0.888,1.776,2.664,2.22h10.656c2.664,0,4.884,0.888,7.104,3.108
		c2.22,2.22,3.107,4.44,3.107,7.104v8.437c0,1.776-0.443,3.552-1.775,5.328c-1.332,1.776-2.221,3.108-3.996,3.996
		c-1.332,0.888-3.108,0.888-5.328,0.888h-24.865V79.416z"/>
	<path fill="#5A5955" d="M473.692,79.416V15.479h11.988v17.316h7.992v11.988h-7.992v34.633H473.692z"/>
	<path fill="#5A5955" d="M498.113,44.783c0-7.992,3.995-11.988,11.987-11.988h7.992v11.988h-5.328
		c-2.221,0.444-3.108,1.332-3.108,2.664v31.969h-11.987V44.783H498.113z"/>
	<path fill="#5A5955" d="M520.757,20.807c0-2.22,0.443-3.996,1.775-5.328c1.333-1.332,3.108-2.22,5.328-2.22
		c2.221,0,3.553,0.888,5.328,2.22c1.333,1.332,2.221,3.108,2.221,5.328c0,2.22-0.888,3.996-2.221,5.328
		c-1.332,1.332-3.107,2.22-5.328,2.22c-2.22,0-3.552-0.888-4.884-2.22S520.757,23.027,520.757,20.807z M522.089,79.416V32.794
		h11.988v46.621H522.089z"/>
	<path fill="#5A5955" d="M542.069,68.759v-9.325c0-3.551,0.888-6.215,3.108-7.992c2.22-1.776,4.884-2.664,8.436-2.664h15.54v-2.664
		c0-0.888-0.889-1.776-2.664-1.776h-24.42V32.794h27.084c0.443,0,0.888,0,2.22,0c5.328,0.444,8.88,3.552,9.769,8.88
		c0,0.888,0,1.332,0,2.22v24.864c0,0.888,0,1.332,0,2.22c-0.444,2.664-1.776,4.884-3.553,6.216s-3.996,2.22-6.66,2.22h-16.428
		c-6.659,0-10.656-2.664-11.987-8.437C542.514,70.535,542.514,69.647,542.069,68.759z M554.502,66.983
		c0.443,0.444,0.888,0.888,1.775,0.888h0.444h9.323c2.22,0,3.108-0.888,3.108-2.664v-3.108c0-1.332-0.444-1.776-1.333-2.22
		c-0.443-0.444-0.888-0.444-1.775-0.444h-10.211c-0.889,0-1.776,0.888-1.776,2.22v3.552
		C554.058,65.651,554.058,66.095,554.502,66.983z"/>
	<path fill="#5A5955" d="M588.689,79.416V67.427h20.868c1.332-0.444,2.221-0.888,2.221-1.776v-0.444v-0.888
		c0-1.332-0.444-1.776-1.776-2.22H599.79c-1.776,0-3.553-0.444-4.885-1.332c-3.996-2.22-5.771-5.328-5.771-8.436v-8.88
		c0-0.888,0-1.776,0.443-2.664c1.332-5.328,4.885-7.992,11.101-7.992h23.531l0.444,11.988h-21.312c-0.444,0-0.444,0-0.888,0.444
		c-0.889,0.888-1.332,1.332-1.332,1.776v0.888c0,1.332,0.888,1.776,2.664,2.22h10.656c2.664,0,4.883,0.888,7.104,3.108
		c2.22,2.22,3.107,4.44,3.107,7.104v8.437c0,1.776-0.444,3.552-1.776,5.328c-1.331,1.776-2.22,3.108-3.995,3.996
		c-1.332,0.888-3.107,0.888-5.328,0.888h-24.864V79.416z"/>
</g>
<g>
	<circle fill="#FFFFFF" cx="111.164" cy="118.99" r="68.8"/>
	<path fill="#D8D6DA" d="M110.053,42.119c-16.872,0-31.968,5.328-44.4,14.652c1.776,3.108,3.996,6.216,6.216,8.88
		c0.888,0.888,1.776,2.22,2.22,3.108c10.212-7.548,22.644-11.988,35.964-11.988c33.301,0,60.385,27.084,60.385,60.384
		c0,20.424-10.212,38.629-26.196,49.729c0.888,0.889,1.332,1.776,2.22,2.664c2.22,3.108,4.44,5.772,6.66,8.437
		c-0.444,0.444-0.888,0.444-1.332,0.888l0.444,0.444c19.98-13.765,33.3-36.409,33.3-62.161
		C185.534,75.863,151.79,42.119,110.053,42.119z"/>
	<path fill="#838281" d="M111.829,25.247c-19.98,0-38.628,6.66-53.725,17.76c1.776,3.996,4.884,7.548,7.548,11.1
		c0.888,1.332,1.776,2.664,3.108,3.996c11.988-8.88,27.084-14.208,43.068-14.208c39.96,0,72.373,32.412,72.373,72.373
		c0,24.864-12.433,46.62-31.524,59.94c0.888,1.332,1.776,2.221,2.664,3.553c2.664,3.552,5.328,6.66,7.992,10.211
		c-0.444,0.444-0.888,0.889-1.332,0.889l0.444,0.443c23.976-16.428,39.96-43.956,39.96-75.036
		C202.406,66.095,161.558,25.247,111.829,25.247z"/>
	<path fill="#5A5955" d="M111.368,3.62c-24.74,0-47.714,7.953-66.269,21.647c2.651,4.86,5.743,9.278,9.278,13.696
		c1.325,1.325,2.209,2.651,3.535,4.418C72.932,32.337,91.487,25.71,111.368,25.71c49.481,0,89.684,40.203,89.684,89.684
		c0,30.484-15.462,57.433-38.877,73.78c0.883,1.325,2.208,2.65,3.092,4.418c3.092,4.418,6.627,8.395,10.162,12.37
		c-0.442,0.44-1.326,0.883-1.768,1.325c0,0.44,0.442,0.44,0.442,0.883c29.6-19.88,49.039-53.898,49.039-92.334
		C222.7,53.543,172.778,3.62,111.368,3.62z"/>
	<path fill="#F3F100" d="M172.658,189.528c-11.1-15.096-21.756-30.192-32.856-45.289c-11.1-14.651-21.756-28.859-32.413-43.512
		c-10.656-14.652-20.868-29.304-30.191-44.4c-4.884-7.548-9.769-15.096-15.541-22.201c-3.552-4.44-6.66-8.879-9.324-13.764
		C23.916,41.231,5.268,74.087,5.268,111.828c0,61.716,50.172,111.889,111.889,111.889c24.42,0,47.064-7.992,65.713-21.312
		C179.318,198.408,175.766,193.968,172.658,189.528z"/>
	<g>
		<path fill="#FFFFFF" d="M113.867,225.8C51.669,225.8,1.067,175.198,1.067,113c0-62.198,50.602-112.799,112.799-112.799
			S226.666,50.802,226.666,113C226.666,175.198,176.064,225.8,113.867,225.8z M113.867,5.201C54.426,5.201,6.067,53.559,6.067,113
			c0,59.441,48.358,107.8,107.799,107.8S221.666,172.441,221.666,113C221.666,53.559,173.308,5.201,113.867,5.201z"/>
	</g>
</g>
</svg>
